<svg width="29" height="41" viewBox="0 0 29 41" fill="none" xmlns="http://www.w3.org/2000/svg">
<mask id="path-1-inside-1_63_256" fill="white">
<path fill-rule="evenodd" clip-rule="evenodd" d="M16.3507 39.0599C20.1661 33.4671 28.6076 20.4125 28.6076 14.3892C28.6076 6.60717 22.2991 0.298615 14.5171 0.298615C6.73507 0.298615 0.426514 6.60717 0.426514 14.3892C0.426514 20.4125 8.86805 33.4671 12.6835 39.0599C13.575 40.3667 15.4592 40.3667 16.3507 39.0599ZM14.5172 21.4345C18.4082 21.4345 21.5624 18.2802 21.5624 14.3892C21.5624 10.4982 18.4082 7.34389 14.5172 7.34389C10.6262 7.34389 7.47188 10.4982 7.47188 14.3892C7.47188 18.2802 10.6262 21.4345 14.5172 21.4345Z"/>
</mask>
<path fill-rule="evenodd" clip-rule="evenodd" d="M16.3507 39.0599C20.1661 33.4671 28.6076 20.4125 28.6076 14.3892C28.6076 6.60717 22.2991 0.298615 14.5171 0.298615C6.73507 0.298615 0.426514 6.60717 0.426514 14.3892C0.426514 20.4125 8.86805 33.4671 12.6835 39.0599C13.575 40.3667 15.4592 40.3667 16.3507 39.0599ZM14.5172 21.4345C18.4082 21.4345 21.5624 18.2802 21.5624 14.3892C21.5624 10.4982 18.4082 7.34389 14.5172 7.34389C10.6262 7.34389 7.47188 10.4982 7.47188 14.3892C7.47188 18.2802 10.6262 21.4345 14.5172 21.4345Z" fill="#75CC72"/>
<path d="M16.3507 39.0599L14.4343 37.7525L14.4343 37.7525L16.3507 39.0599ZM12.6835 39.0599L14.5998 37.7525L14.5998 37.7525L12.6835 39.0599ZM26.2878 14.3892C26.2878 15.4461 25.8943 17.0594 25.0709 19.1476C24.2691 21.1811 23.1444 23.4585 21.8761 25.7701C19.3412 30.3902 16.3248 34.9814 14.4343 37.7525L18.2671 40.3672C20.192 37.5456 23.304 32.8131 25.9438 28.0019C27.2628 25.5979 28.487 23.1326 29.3872 20.8495C30.2658 18.6212 30.9275 16.3439 30.9275 14.3892H26.2878ZM14.5171 2.61847C21.0179 2.61847 26.2878 7.88839 26.2878 14.3892H30.9275C30.9275 5.32596 23.5803 -2.02124 14.5171 -2.02124V2.61847ZM2.74637 14.3892C2.74637 7.88839 8.01629 2.61847 14.5171 2.61847V-2.02124C5.45385 -2.02124 -1.89334 5.32596 -1.89334 14.3892H2.74637ZM14.5998 37.7525C12.7094 34.9814 9.69292 30.3902 7.15805 25.7701C5.88973 23.4585 4.76507 21.1811 3.96327 19.1476C3.13987 17.0594 2.74637 15.4461 2.74637 14.3892H-1.89334C-1.89334 16.3439 -1.23165 18.6212 -0.353026 20.8495C0.54719 23.1326 1.77137 25.5979 3.09037 28.0019C5.73011 32.8131 8.84213 37.5456 10.7671 40.3672L14.5998 37.7525ZM14.4343 37.7525C14.4295 37.7596 14.4378 37.7465 14.4615 37.7342C14.4814 37.724 14.5007 37.7201 14.5171 37.7201C14.5335 37.7201 14.5528 37.724 14.5727 37.7342C14.5964 37.7465 14.6046 37.7596 14.5998 37.7525L10.7671 40.3672C12.5796 43.024 16.4546 43.024 18.2671 40.3672L14.4343 37.7525ZM19.2426 14.3892C19.2426 16.999 17.1269 19.1146 14.5172 19.1146V23.7543C19.6894 23.7543 23.8823 19.5614 23.8823 14.3892H19.2426ZM14.5172 9.66374C17.1269 9.66374 19.2426 11.7794 19.2426 14.3892H23.8823C23.8823 9.21695 19.6894 5.02404 14.5172 5.02404V9.66374ZM9.79173 14.3892C9.79173 11.7794 11.9074 9.66374 14.5172 9.66374V5.02404C9.34494 5.02404 5.15202 9.21695 5.15202 14.3892H9.79173ZM14.5172 19.1146C11.9074 19.1146 9.79173 16.999 9.79173 14.3892H5.15202C5.15202 19.5614 9.34494 23.7543 14.5172 23.7543V19.1146Z" fill="white" mask="url(#path-1-inside-1_63_256)"/>
</svg>
