<svg version="1.0" xmlns="http://www.w3.org/2000/svg"
 width="80.00000000pt" height="26.48000000pt" viewBox="0 0 4000.000000 1324.000000"
 preserveAspectRatio="xMidYMid meet">

<g transform="translate(0.000000,1324.000000) scale(0.100000,-0.100000)"
fill="#FFFFFF" stroke="none">
<path d="M6230 13229 c-132 -26 -282 -145 -339 -271 -16 -35 -352 -1135 -747
-2445 -396 -1311 -722 -2382 -725 -2380 -3 1 -40 43 -81 92 -413 497 -995 809
-1636 876 -167 17 -495 7 -651 -21 -676 -120 -1259 -495 -1634 -1054 -204
-302 -335 -643 -394 -1026 -24 -159 -24 -519 0 -680 87 -564 337 -1049 738
-1434 375 -359 860 -591 1384 -661 143 -19 450 -22 580 -5 580 75 1068 311
1465 709 241 243 413 502 540 816 32 78 1995 6552 2080 6856 101 367 -206 701
-580 628z m-3565 -5124 c570 -86 1041 -500 1195 -1050 70 -252 69 -555 -4
-805 -150 -517 -566 -901 -1107 -1022 -138 -31 -435 -33 -569 -5 -533 114
-943 473 -1109 972 -57 170 -74 280 -74 465 -1 120 4 180 21 267 127 641 622
1101 1277 1186 76 10 280 5 370 -8z"/>
<path d="M30316 13184 c-125 -30 -252 -128 -314 -242 -18 -33 -291 -921 -753
-2452 -398 -1320 -727 -2400 -730 -2400 -4 0 -26 26 -49 57 -59 78 -246 269
-344 352 -335 283 -753 472 -1211 548 -157 26 -562 26 -725 0 -1075 -171
-1897 -995 -2065 -2072 -22 -142 -30 -425 -16 -575 57 -597 314 -1131 744
-1547 385 -371 845 -592 1392 -669 160 -22 449 -22 615 0 911 122 1674 725
1988 1571 38 102 2020 6649 2063 6814 47 181 1 355 -128 484 -123 123 -297
172 -467 131z m-3478 -5133 c400 -85 736 -317 954 -657 80 -125 159 -324 195
-494 26 -122 25 -449 -1 -570 -95 -439 -369 -802 -758 -1005 -110 -57 -265
-113 -388 -140 -119 -26 -373 -31 -503 -11 -619 98 -1086 545 -1218 1166 -32
149 -32 410 -1 556 138 644 629 1095 1282 1178 83 10 347 -3 438 -23z"/>
<path d="M7661 9134 c-439 -56 -877 -241 -1221 -516 -582 -467 -920 -1168
-920 -1911 0 -282 36 -513 120 -767 299 -911 1073 -1550 2030 -1676 175 -23
535 -15 703 15 819 146 1494 663 1828 1401 96 211 113 269 112 385 0 154 -48
263 -159 365 -153 139 -371 168 -558 74 -122 -61 -187 -141 -258 -317 -93
-229 -198 -388 -361 -544 -197 -188 -441 -316 -712 -375 -133 -28 -361 -35
-500 -14 -445 66 -825 321 -1050 701 -267 450 -272 1016 -14 1467 252 440 702
714 1209 735 373 15 701 -97 998 -340 40 -33 69 -64 64 -69 -4 -4 -298 -150
-652 -324 -355 -174 -667 -333 -693 -353 -134 -101 -213 -292 -187 -455 32
-199 148 -340 336 -407 77 -27 206 -30 286 -6 58 18 608 284 1543 747 547 271
599 303 641 393 66 143 -14 380 -248 729 -354 531 -920 908 -1547 1033 -69 14
-166 29 -216 35 -124 14 -448 11 -574 -6z"/>
<path d="M12825 9139 c-534 -56 -1049 -296 -1438 -669 -386 -370 -631 -833
-729 -1377 -20 -111 -23 -162 -23 -388 0 -279 9 -369 62 -584 129 -536 441
-1020 874 -1357 344 -269 767 -444 1219 -505 121 -16 445 -16 575 0 903 113
1663 697 1995 1532 71 176 83 259 55 377 -47 201 -205 348 -408 383 -144 24
-307 -27 -414 -129 -65 -63 -96 -113 -139 -225 -137 -360 -387 -638 -719 -802
-246 -121 -371 -150 -650 -150 -225 0 -279 8 -458 66 -233 76 -427 198 -599
377 -196 205 -317 435 -380 726 -32 145 -31 425 0 573 127 589 559 1016 1156
1145 146 31 407 31 556 -1 255 -54 476 -161 664 -321 36 -30 65 -57 65 -60 1
-3 -297 -151 -661 -330 -716 -352 -729 -359 -804 -476 -105 -164 -102 -379 7
-543 52 -78 107 -125 194 -167 128 -62 261 -68 387 -20 97 37 1926 938 2001
985 73 47 132 107 153 157 53 127 -31 367 -243 693 -355 545 -944 937 -1593
1060 -210 40 -496 52 -705 30z"/>
<path d="M18293 9135 c-721 -93 -1354 -491 -1753 -1100 -83 -127 -193 -346
-245 -489 -20 -54 -464 -1627 -987 -3495 -896 -3201 -951 -3402 -955 -3493 -6
-119 16 -204 78 -297 174 -260 538 -295 759 -72 38 38 77 90 93 123 15 32 320
1105 697 2455 369 1319 673 2405 676 2413 4 11 15 2 41 -30 74 -92 332 -339
433 -414 318 -237 667 -386 1065 -457 170 -30 521 -38 695 -15 579 76 1072
322 1470 732 360 371 578 812 665 1344 23 134 31 438 16 585 -58 571 -288
1071 -680 1477 -393 408 -893 658 -1464 733 -144 18 -458 18 -604 0z m599
-1004 c282 -61 534 -197 733 -396 211 -211 342 -455 406 -755 32 -150 32 -409
0 -560 -64 -302 -192 -542 -401 -750 -234 -234 -525 -377 -855 -421 -184 -24
-451 2 -633 62 -270 89 -544 287 -718 519 -119 160 -216 378 -261 590 -26 121
-26 439 0 560 61 284 185 523 377 724 228 239 511 388 835 441 127 20 388 13
517 -14z"/>
<path d="M31840 9104 c-366 -42 -640 -124 -930 -275 -216 -113 -391 -241 -574
-418 -400 -389 -652 -904 -722 -1471 -24 -194 -15 -492 19 -690 29 -164 78
-342 133 -481 36 -93 126 -281 145 -303 5 -6 26 -32 46 -59 44 -58 137 -121
212 -145 76 -23 252 -22 339 2 44 12 336 165 940 493 483 261 900 490 927 508
62 41 1100 605 1113 605 15 0 26 -179 19 -302 -11 -194 -65 -395 -152 -569
-136 -271 -402 -530 -676 -658 -317 -149 -673 -181 -1015 -91 -254 66 -488
-35 -596 -258 -38 -79 -42 -93 -46 -188 -6 -125 16 -209 79 -303 98 -147 211
-200 563 -264 104 -19 158 -22 386 -22 233 0 280 3 393 23 537 97 976 323
1345 692 370 370 600 826 689 1365 26 156 25 563 0 720 -45 272 -125 521 -243
757 -146 291 -432 390 -714 248 -124 -63 -1773 -962 -1822 -993 -29 -19 -192
-110 -363 -202 -170 -93 -403 -219 -517 -281 l-207 -112 -8 36 c-14 69 -8 352
10 448 84 457 371 840 782 1047 318 159 665 197 1017 111 268 -66 466 3 598
208 129 198 81 494 -104 640 -97 77 -227 120 -503 164 -93 15 -482 27 -563 18z"/>
<path d="M37250 9096 c-720 -92 -1350 -482 -1751 -1086 -126 -189 -243 -444
-313 -680 -101 -342 -1880 -6725 -1887 -6771 -28 -172 63 -373 213 -472 202
-132 453 -109 622 56 37 36 76 87 93 122 21 41 247 834 703 2465 369 1323 675
2408 679 2412 3 4 29 -20 56 -54 73 -90 237 -253 335 -331 335 -269 715 -441
1141 -517 173 -31 522 -39 699 -16 788 103 1448 543 1840 1227 148 258 248
551 297 869 25 160 25 520 0 680 -96 624 -400 1166 -872 1553 -333 274 -719
450 -1160 528 -153 27 -533 35 -695 15z m592 -1005 c522 -112 934 -485 1097
-995 48 -150 64 -260 64 -436 0 -185 -17 -295 -73 -463 -166 -498 -564 -851
-1091 -969 -147 -33 -434 -33 -586 0 -580 126 -1014 561 -1140 1144 -26 120
-26 458 1 578 101 462 394 834 811 1031 116 55 266 102 375 118 41 6 86 13
100 15 65 12 349 -4 442 -23z"/>
</g>
</svg>
